<svg width="12" height="9" viewBox="0 0 12 9" fill="none" xmlns="http://www.w3.org/2000/svg">
<g clip-path="url(#clip0_297_133)">
<path d="M5.99931 8.996C4.61465 8.996 3.22941 8.98539 1.84475 8.99974C0.934262 9.00973 0.216592 8.32559 0.0488251 7.50661C0.0214465 7.37178 0.00280573 7.23133 0.0022232 7.094C-0.00068942 5.36491 -0.000106895 3.6352 0.000475629 1.90611C0.00105815 0.908607 0.762417 0.0546748 1.68921 0.0103552C1.74106 0.00785837 1.79349 0.00536149 1.84533 0.00536149C4.61523 0.00536149 7.38455 0.0128521 10.1545 0.000991952C11.0638 -0.00275337 11.7809 0.677646 11.9457 1.47914C11.9748 1.61959 11.9964 1.76441 11.997 1.90736C12.0005 3.63707 11.9999 5.36616 11.9987 7.09587C11.9981 8.09338 11.2368 8.97165 10.3094 8.98539C8.8729 9.00723 7.43582 8.991 5.99873 8.991C5.99931 8.99225 5.99931 8.99413 5.99931 8.996ZM10.8034 2.17453C10.7271 2.22072 10.6729 2.2513 10.6205 2.28439C9.21193 3.18826 7.80222 4.08963 6.39659 4.9985C6.12747 5.17265 5.88106 5.17889 5.61077 5.00411C4.26805 4.1352 2.92067 3.27315 1.57446 2.40861C1.4562 2.33245 1.33679 2.25942 1.20863 2.17952C1.20106 2.21572 1.19523 2.23008 1.19523 2.24506C1.19523 3.83495 1.1929 5.42484 1.19698 7.01473C1.19815 7.45917 1.44921 7.7151 1.86339 7.7151C4.61698 7.7151 7.37116 7.7151 10.1247 7.7151C10.557 7.7151 10.7976 7.45917 10.8022 6.99163C10.8046 6.74631 10.8028 6.50099 10.8028 6.25505C10.8034 4.90611 10.8034 3.55655 10.8034 2.17453ZM2.18844 1.29125C2.21931 1.31934 2.22572 1.32808 2.23446 1.3337C3.45543 2.11772 4.67698 2.90049 5.89562 3.68826C5.98475 3.74569 6.04242 3.72571 6.11989 3.67577C7.23776 2.95667 8.35737 2.24007 9.4764 1.52284C9.58358 1.45418 9.68844 1.38177 9.82417 1.29188C7.26106 1.29125 4.73873 1.29125 2.18844 1.29125Z" fill="white"/>
</g>
<defs>
<clipPath id="clip0_297_133">
<rect width="12" height="9" fill="white"/>
</clipPath>
</defs>
</svg>
