<svg width="41" height="28" viewBox="0 0 41 28" fill="none" xmlns="http://www.w3.org/2000/svg">
<g clip-path="url(#clip0_112_129)">
<path d="M20.4976 27.9865C15.7667 27.9865 11.0338 27.9535 6.30289 27.9981C3.19206 28.0292 0.740023 25.9007 0.166819 23.3528C0.0732755 22.9333 0.00958623 22.4964 0.00759594 22.0691C-0.00235552 16.6898 -0.000365225 11.3084 0.00162507 5.92904C0.00361536 2.82569 2.60493 0.169014 5.77148 0.0311313C5.94862 0.0233632 6.12774 0.0155951 6.30488 0.0155951C15.7687 0.0155951 25.2306 0.0388993 34.6944 0.002001C37.8012 -0.0096511 40.2513 2.10715 40.8145 4.6007C40.9141 5.03765 40.9877 5.4882 40.9897 5.93292C41.0016 11.3142 40.9996 16.6936 40.9957 22.075C40.9937 25.1783 38.3924 27.9107 35.2238 27.9535C30.3158 28.0214 25.4057 27.9709 20.4957 27.9709C20.4976 27.9748 20.4976 27.9806 20.4976 27.9865ZM36.9116 6.7641C36.6509 6.90781 36.4658 7.00297 36.2866 7.1059C31.4741 9.91794 26.6576 12.7222 21.855 15.5498C20.9355 16.0916 20.0936 16.111 19.1701 15.5673C14.5825 12.864 9.97896 10.1821 5.37939 7.49236C4.97536 7.25543 4.56735 7.02822 4.12949 6.77964C4.10362 6.89228 4.08371 6.93694 4.08371 6.98355C4.08371 11.9299 4.07575 16.8762 4.08968 21.8225C4.09366 23.2052 4.95148 24.0014 6.36658 24.0014C15.7747 24.0014 25.1848 24.0014 34.5929 24.0014C36.0697 24.0014 36.8917 23.2052 36.9076 21.7506C36.9156 20.9874 36.9096 20.2242 36.9096 19.4591C36.9116 15.2624 36.9116 11.0637 36.9116 6.7641ZM7.47716 4.01615C7.58264 4.10354 7.60454 4.13073 7.63439 4.14821C11.806 6.58738 15.9797 9.02267 20.1434 11.4735C20.4479 11.6522 20.6449 11.59 20.9096 11.4347C24.729 9.19745 28.5543 6.96802 32.3777 4.73664C32.7439 4.52302 33.1022 4.29774 33.5659 4.01809C24.8086 4.01615 16.1907 4.01615 7.47716 4.01615Z" fill="white"/>
</g>
<defs>
<clipPath id="clip0_112_129">
<rect width="41" height="28" fill="white"/>
</clipPath>
</defs>
</svg>
