<svg width="31" height="44" viewBox="0 0 31 44" fill="none" xmlns="http://www.w3.org/2000/svg">
<g clip-path="url(#clip0_112_127)">
<path d="M0 9.53967C0.0468613 6.63057 0.463681 4.17542 2.27154 2.16688C5.17448 -1.05704 9.89021 -0.661677 11.8115 3.20165C12.8967 5.38347 13.4171 7.86303 14.0066 10.2547C14.3889 11.802 13.5528 12.9906 12.2209 13.8276C8.12181 16.4073 7.631 17.8057 9.81128 22.1425C10.9927 24.4927 12.433 26.7404 13.9869 28.871C15.4371 30.8575 17.0033 31.1114 19.3192 30.1962C19.662 30.0595 20.0024 29.9131 20.3329 29.752C23.0854 28.417 24.0152 28.5098 26.2448 30.6355C27.3941 31.7312 28.4646 32.9271 29.4264 34.1864C31.2639 36.5879 31.4711 39.1602 30.1368 41.2248C28.7951 43.3042 25.7885 44.5683 23.0681 43.7508C21.0284 43.1382 18.9443 42.2499 17.2499 40.9954C11.2196 36.5269 7.23884 30.4231 4.03254 23.7971C1.80539 19.1797 0.189912 14.3816 0 9.53967Z" fill="white"/>
</g>
<defs>
<clipPath id="clip0_112_127">
<rect width="31" height="44" fill="white"/>
</clipPath>
</defs>
</svg>
