<svg width="8" height="11" viewBox="0 0 8 11" fill="none" xmlns="http://www.w3.org/2000/svg">
<path d="M0 2.3849C0.0120948 1.65767 0.119675 1.04391 0.586281 0.541809C1.33552 -0.264122 2.55265 -0.165287 3.04853 0.800488C3.32862 1.34591 3.46294 1.96576 3.61508 2.56365C3.71375 2.95045 3.49795 3.24756 3.1542 3.45683C2.09623 4.10169 1.96955 4.45128 2.53228 5.53541C2.83719 6.12293 3.20895 6.68482 3.60999 7.21743C3.98429 7.71404 4.38851 7.77749 4.98625 7.54871C5.07474 7.51454 5.16258 7.47794 5.24788 7.43767C5.9583 7.10395 6.19828 7.12714 6.77374 7.65853C7.07038 7.93246 7.34665 8.2314 7.59492 8.54621C8.06916 9.14654 8.12263 9.78958 7.77825 10.3057C7.43195 10.8255 6.65598 11.1415 5.95384 10.9372C5.4274 10.784 4.88949 10.562 4.45217 10.2484C2.89576 9.13129 1.86833 7.60545 1.04079 5.94905C0.465969 4.79476 0.0490159 3.59532 0 2.3849Z" fill="white"/>
</svg>
